[Header]
FileType HTR
DataType HTRS
FileVersion 1
NumSegments 22
NumFrames 8
DataFrameRate 24
EulerRotationOrder ZYX
CalibrationUnits mm
RotationUnits Degrees
GlobalAxisofGravity Y
BoneLengthAxis Y
ScaleFactor 1.0
[SegmentNames&Hierarchy]
reference	GLOBAL
Hips	reference
Spine	Hips
Spine1	Spine
Neck	Spine1
Head	Neck
LeftShoulder	Spine1
LeftArm	LeftShoulder
LeftForeArm	LeftArm
LeftHand	LeftForeArm
RightShoulder	Spine1
RightArm	RightShoulder
RightForeArm	RightArm
RightHand	RightForeArm
LeftUpLeg	Hips
LeftLeg	LeftUpLeg
LeftFoot	LeftLeg
LeftToeBase	LeftFoot
RightUpLeg	Hips
RightLeg	RightUpLeg
RightFoot	RightLeg
RightToeBase	RightFoot
[BasePosition]
reference	0	0	0	0	0	0	1
Hips	0	0	0	0	0	0	1
Spine	0	0	0	0	-0	90	1
Spine1	0	0	0	0	0	0	1
Neck	0	0	0	-7.352430803	-7.352430803	90	1
Head	0	0	0	0	-0	90	1
LeftShoulder	0	0	0	0	0	0	1
LeftArm	0	0	0	0	0	0	1
LeftForeArm	0	0	0	0	0	0	1
LeftHand	0	0	0	0	0	0	1
RightShoulder	0	0	0	0	-0	180	1
RightArm	0	0	0	0	-0	180	1
RightForeArm	0	0	0	0	-0	180	1
RightHand	0	0	0	0	-0	180	1
LeftUpLeg	0	0	0	0	-0	-90	1
LeftLeg	0	0	0	0	-0	-90	1
LeftFoot	0	0	0	66.57150701	-66.57150701	-90	1
LeftToeBase	0	0	0	0	-90	0	1
RightUpLeg	0	0	0	0	-0	-90	1
RightLeg	0	0	0	0	-0	-90	1
RightFoot	0	0	0	66.57150701	-66.57150701	-90	1
RightToeBase	0	0	0	0	-90	0	1
[reference]
1	0	0	0	0	-0	0	1.0
2	0	0	0	0	-0	0	1.0
3	0	0	0	0	-0	0	1.0
4	0	0	0	0	-0	0	1.0
5	0	0	0	0	-0	0	1.0
6	0	0	0	0	-0	0	1.0
7	0	0	0	0	-0	0	1.0
8	0	0	0	0	-0	0	1.0
[Hips]
1	0.4207000136	8.379309654	0.2787799835	-13.32707214	-104.638237	9.333282471	1.0
2	0.4207000136	8.379309654	0.2787799835	-13.23598194	-104.9409027	9.268321991	1.0
3	0.4207000136	8.379309654	0.2787799835	-13.18167782	-105.2023239	9.237680435	1.0
4	0.4207000136	8.379309654	0.2787799835	-13.1154213	-105.3491669	9.253696442	1.0
5	0.4207000136	8.379309654	0.2787799835	-13.06780052	-105.4411621	9.256820679	1.0
6	0.4207000136	8.379309654	0.2787799835	-13.03177261	-105.489502	9.25958252	1.0
7	0.4207000136	8.379309654	0.2787799835	-13.00306702	-105.5344238	9.282348633	1.0
8	0.4207000136	8.379309654	0.2787799835	-12.89940262	-105.5848007	9.217375755	1.0
[Spine]
1	0	0.7478299737	0	-6.78789854	0.7014999986	-87.71141052	1.0
2	0	0.7478299737	0	-6.76578331	0.753901124	-87.67854309	1.0
3	0	0.7478299737	0	-6.739983559	0.7485314608	-87.66047668	1.0
4	0	0.7478299737	0	-6.751337528	0.6873188019	-87.64595032	1.0
5	0	0.7478299737	0	-6.71178484	0.5824475884	-87.6548233	1.0
6	0	0.7478299737	0	-6.678215027	0.5093997717	-87.62757874	1.0
7	0	0.7478299737	0	-6.617855549	0.4871205091	-87.56123352	1.0
8	0	0.7478299737	0	-6.626867294	0.4961719513	-87.56671906	1.0
[Spine1]
1	0	2.049309969	0	10.96141243	0.3690644503	-1.733690977	1.0
2	0	2.049309969	0	10.89963245	0.3716808856	-1.763299823	1.0
3	0	2.049309969	0	10.84040833	0.3696515262	-1.778004646	1.0
4	0	2.049309969	0	10.76674652	0.3547633588	-1.839359045	1.0
5	0	2.049309969	0	10.67409801	0.3239955902	-1.884161353	1.0
6	0	2.049309969	0	10.55994415	0.3170696795	-2.061593533	1.0
7	0	2.049309969	0	10.49870014	0.3126181662	-2.123031139	1.0
8	0	2.049309969	0	10.4404192	0.3148836195	-2.122895718	1.0
[Neck]
1	0	2.231709957	0	1.883951306	6.314790249	-85.47593689	1.0
2	0	2.231709957	0	1.990658998	6.407464981	-85.55461121	1.0
3	0	2.231709957	0	2.019433498	6.445041656	-85.57562256	1.0
4	0	2.231709957	0	2.018386126	6.517588615	-85.48577881	1.0
5	0	2.231709957	0	1.983998656	6.576841831	-85.47635651	1.0
6	0	2.231709957	0	1.971917868	6.582397461	-85.49329376	1.0
7	0	2.231709957	0	1.930768013	6.580920696	-85.4107666	1.0
8	0	2.231709957	0	2.025444984	6.574226379	-85.36870575	1.0
[Head]
1	0	1.413589954	0.1823999882	-6.581416607	-0.4827308357	-92.8580246	1.0
2	0	1.413589954	0.1823999882	-6.658851147	-0.3966658711	-92.79920197	1.0
3	0	1.413589954	0.1823999882	-6.611408234	-0.3533879519	-92.86392212	1.0
4	0	1.413589954	0.1823999882	-6.566303253	-0.2611576319	-93.00653839	1.0
5	0	1.413589954	0.1823999882	-6.517666817	-0.2015507817	-92.98962402	1.0
6	0	1.413589954	0.1823999882	-6.36878109	-0.2025319934	-92.94983673	1.0
7	0	1.413589954	0.1823999882	-6.426921368	-0.198625043	-92.89096069	1.0
8	0	1.413589954	0.1823999882	-6.401070118	-0.1874331683	-93.03014374	1.0
[LeftShoulder]
1	0.3649300039	1.825889945	-0.04271000251	-9.916074753	-8.169490814	3.411654472	1.0
2	0.3649300039	1.825889945	-0.04271000251	-9.81774807	-8.252119064	3.387690067	1.0
3	0.3649300039	1.825889945	-0.04271000251	-9.872358322	-8.266247749	3.405943632	1.0
4	0.3649300039	1.825889945	-0.04271000251	-9.855136871	-8.299068451	3.421230316	1.0
5	0.3649300039	1.825889945	-0.04271000251	-9.918811798	-8.289638519	3.484467983	1.0
6	0.3649300039	1.825889945	-0.04271000251	-9.900319099	-8.294149399	3.598088264	1.0
7	0.3649300039	1.825889945	-0.04271000251	-9.898728371	-8.30718708	3.6071558	1.0
8	0.3649300039	1.825889945	-0.04271000251	-9.781024933	-8.464118004	3.545597315	1.0
[LeftArm]
1	1.24003005	0	0	44.70700073	8.43353653	-80.58060455	1.0
2	1.24003005	0	0	44.83527374	8.374534607	-80.47058105	1.0
3	1.24003005	0	0	44.45759964	8.349528313	-80.36703491	1.0
4	1.24003005	0	0	44.6031723	8.260820389	-80.34085846	1.0
5	1.24003005	0	0	44.8638649	8.260886192	-80.43338776	1.0
6	1.24003005	0	0	45.06764221	8.171601295	-80.53070831	1.0
7	1.24003005	0	0	45.26943588	8.078398705	-80.5821991	1.0
8	1.24003005	0	0	45.39125061	7.989771843	-80.58287811	1.0
[LeftForeArm]
1	2.847419977	0	0	-12.53114033	-13.87323856	-3.995398521	1.0
2	2.847419977	0	0	-12.67191029	-14.00227356	-3.800431013	1.0
3	2.847419977	0	0	-12.42606926	-14.13079071	-3.999302149	1.0
4	2.847419977	0	0	-12.49880219	-14.24043083	-3.981276751	1.0
5	2.847419977	0	0	-12.56816196	-14.29613781	-3.83910203	1.0
6	2.847419977	0	0	-12.62316513	-14.39384842	-3.740063429	1.0
7	2.847419977	0	0	-12.76370907	-14.49694824	-3.635023117	1.0
8	2.847419977	0	0	-12.82329369	-14.67925358	-3.544641972	1.0
[LeftHand]
1	2.258270025	0	0	-12.95248985	-4.136157513	-1.798758864	1.0
2	2.258270025	0	0	-13.0758419	-4.065030098	-1.774126649	1.0
3	2.258270025	0	0	-12.85807514	-4.162264347	-1.758623362	1.0
4	2.258270025	0	0	-12.93719387	-4.148547173	-1.633447766	1.0
5	2.258270025	0	0	-12.98373127	-4.231606007	-1.788821936	1.0
6	2.258270025	0	0	-13.03330231	-4.198013783	-1.700402021	1.0
7	2.258270025	0	0	-13.15741348	-4.341365337	-1.815206289	1.0
8	2.258270025	0	0	-13.21354389	-4.372160435	-1.741489172	1.0
[RightShoulder]
1	-0.3646599948	1.825889945	-0.04271000251	-7.42211628	8.264633179	177.8477631	1.0
2	-0.3646599948	1.825889945	-0.04271000251	-7.329136372	8.428725243	177.8712158	1.0
3	-0.3646599948	1.825889945	-0.04271000251	-7.266831398	8.485162735	177.8816528	1.0
4	-0.3646599948	1.825889945	-0.04271000251	-7.221667767	8.437958717	177.8848877	1.0
5	-0.3646599948	1.825889945	-0.04271000251	-7.2330966	8.430459976	177.8877563	1.0
6	-0.3646599948	1.825889945	-0.04271000251	-7.167218685	8.47829628	177.9623108	1.0
7	-0.3646599948	1.825889945	-0.04271000251	-7.253461361	8.382826805	178.0380859	1.0
8	-0.3646599948	1.825889945	-0.04271000251	-7.100799561	8.498972893	178.0466309	1.0
[RightArm]
1	-1.24003005	0	0	47.83586884	-3.497888803	-96.98193359	1.0
2	-1.24003005	0	0	47.78329086	-3.484035492	-97.06520844	1.0
3	-1.24003005	0	0	47.67181778	-3.479320049	-97.13046265	1.0
4	-1.24003005	0	0	47.63038635	-3.490136385	-97.11729431	1.0
5	-1.24003005	0	0	47.50572205	-3.598893404	-97.09093475	1.0
6	-1.24003005	0	0	47.2914238	-3.591580391	-97.16268158	1.0
7	-1.24003005	0	0	47.38842773	-3.704425812	-97.1439209	1.0
8	-1.24003005	0	0	47.24542999	-3.643776417	-97.1879425	1.0
[RightForeArm]
1	-2.847419977	0	0	-1.634300113	14.96436977	178.8202667	1.0
2	-2.847419977	0	0	-1.612371087	14.89739037	178.8756714	1.0
3	-2.847419977	0	0	-1.578928709	14.89571381	178.9222107	1.0
4	-2.847419977	0	0	-1.632003546	14.9231348	178.91716	1.0
5	-2.847419977	0	0	-1.624580264	15.01887608	178.8931274	1.0
6	-2.847419977	0	0	-1.497678518	15.04701996	179.0518036	1.0
7	-2.847419977	0	0	-1.495862484	15.029459	179.0629425	1.0
8	-2.847419977	0	0	-1.486765385	15.00616455	179.0461121	1.0
[RightHand]
1	-2.258270025	0	0	-1.794138312	8.088567734	175.6010895	1.0
2	-2.258270025	0	0	-1.763411403	8.088500977	175.7807007	1.0
3	-2.258270025	0	0	-1.733386874	8.141884804	175.8500671	1.0
4	-2.258270025	0	0	-1.777024984	8.095392227	175.9463806	1.0
5	-2.258270025	0	0	-1.768297553	8.121224403	175.9194946	1.0
6	-2.258270025	0	0	-1.665532827	8.203367233	175.911972	1.0
7	-2.258270025	0	0	-1.667121291	8.233753204	175.9028015	1.0
8	-2.258270025	0	0	-1.644882679	8.216594696	176.0487976	1.0
[LeftUpLeg]
1	0.9119900465	0	0	12.56974506	4.07927084	92.98287201	1.0
2	0.9119900465	0	0	12.63905334	4.209394455	93.0267334	1.0
3	0.9119900465	0	0	12.71707344	4.175535202	93.03700256	1.0
4	0.9119900465	0	0	12.70069981	4.066979408	93.01888275	1.0
5	0.9119900465	0	0	12.71445084	4.141335011	93.0355072	1.0
6	0.9119900465	0	0	12.73320484	4.22794199	93.04442596	1.0
7	0.9119900465	0	0	12.71820259	4.293897152	93.04138947	1.0
8	0.9119900465	0	0	12.72034168	4.309230328	93.01378632	1.0
[LeftLeg]
1	0	-4.371409893	0	2.543368578	0.3860013187	87.80570221	1.0
2	0	-4.371409893	0	2.508401871	0.4169711173	87.79103851	1.0
3	0	-4.371409893	0	2.41260004	0.5901710987	87.77348328	1.0
4	0	-4.371409893	0	2.356082439	0.728117764	87.78266144	1.0
5	0	-4.371409893	0	2.303526163	0.7587492466	87.80092621	1.0
6	0	-4.371409893	0	2.276789665	0.7420380116	87.81570435	1.0
7	0	-4.371409893	0	2.241360664	0.7749493122	87.84316254	1.0
8	0	-4.371409893	0	2.206092596	0.7985476851	87.84991455	1.0
[LeftFoot]
1	0	-3.918009996	0	-102.3889465	115.620697	-39.88890076	1.0
2	0	-3.918009996	0	-102.2392578	115.6373672	-39.70157623	1.0
3	0	-3.918009996	0	-102.0938873	115.653389	-39.55947876	1.0
4	0	-3.918009996	0	-101.9506302	115.6860504	-39.40306091	1.0
5	0	-3.918009996	0	-102.0005646	115.6493149	-39.49092102	1.0
6	0	-3.918009996	0	-102.0217667	115.6551514	-39.5078392	1.0
7	0	-3.918009996	0	-102.0872498	115.6211319	-39.59210968	1.0
8	0	-3.918009996	0	-102.0283508	115.6108017	-39.54564285	1.0
[LeftToeBase]
1	0	-0.5927900076	1.367989898	0	0	0	1.0
2	0	-0.5927900076	1.367989898	0	0	0	1.0
3	0	-0.5927900076	1.367989898	0	0	0	1.0
4	0	-0.5927900076	1.367989898	0	0	0	1.0
5	0	-0.5927900076	1.367989898	0	0	0	1.0
6	0	-0.5927900076	1.367989898	0	0	0	1.0
7	0	-0.5927900076	1.367989898	0	0	0	1.0
8	0	-0.5927900076	1.367989898	0	0	0	1.0
[RightUpLeg]
1	-0.9119900465	0	0	11.78538322	-8.106730461	92.12599182	1.0
2	-0.9119900465	0	0	11.79391479	-7.976057053	92.15787506	1.0
3	-0.9119900465	0	0	11.78115749	-7.766793251	92.19229889	1.0
4	-0.9119900465	0	0	11.72015381	-7.67808342	92.20793152	1.0
5	-0.9119900465	0	0	11.69201088	-7.575191498	92.24390411	1.0
6	-0.9119900465	0	0	11.67812729	-7.498795033	92.27148438	1.0
7	-0.9119900465	0	0	11.62228775	-7.511209965	92.29147339	1.0
8	-0.9119900465	0	0	11.58676815	-7.493882179	92.28237915	1.0
[RightLeg]
1	0	-4.371409893	0	-0.08957795054	-5.550170422	90.55579376	1.0
2	0	-4.371409893	0	-0.1309508383	-5.496019363	90.55632019	1.0
3	0	-4.371409893	0	-0.1443195045	-5.500616074	90.59860229	1.0
4	0	-4.371409893	0	-0.1549262851	-5.446286678	90.64450073	1.0
5	0	-4.371409893	0	-0.1530032903	-5.474765301	90.63764191	1.0
6	0	-4.371409893	0	-0.1551012099	-5.483235359	90.61334991	1.0
7	0	-4.371409893	0	-0.1203797385	-5.486733913	90.57292938	1.0
8	0	-4.371409893	0	-0.1020541266	-5.455143929	90.57090759	1.0
[RightFoot]
1	0	-3.918009996	0	51.67036057	72.79927063	105.0391083	1.0
2	0	-3.918009996	0	52.06102753	72.76454163	105.4303207	1.0
3	0	-3.918009996	0	52.20354462	72.7557373	105.5597839	1.0
4	0	-3.918009996	0	52.25077057	72.73219299	105.5872192	1.0
5	0	-3.918009996	0	52.30712891	72.72598267	105.6251144	1.0
6	0	-3.918009996	0	52.27544403	72.71322632	105.6125488	1.0
7	0	-3.918009996	0	52.46136475	72.70132446	105.8220596	1.0
8	0	-3.918009996	0	52.44810486	72.69711304	105.8356476	1.0
[RightToeBase]
1	0	-0.5927900076	1.367989898	0	0	0	1.0
2	0	-0.5927900076	1.367989898	0	0	0	1.0
3	0	-0.5927900076	1.367989898	0	0	0	1.0
4	0	-0.5927900076	1.367989898	0	0	0	1.0
5	0	-0.5927900076	1.367989898	0	0	0	1.0
6	0	-0.5927900076	1.367989898	0	0	0	1.0
7	0	-0.5927900076	1.367989898	0	0	0	1.0
8	0	-0.5927900076	1.367989898	0	0	0	1.0
[EndOfFile]
